<svg width="161" height="48" viewBox="0 0 161 48" fill="none" xmlns="http://www.w3.org/2000/svg">
<rect x="1.08203" y="0.5" width="158.477" height="46.346" rx="4.43959" fill="black"/>
<rect x="1.08203" y="0.5" width="158.477" height="46.346" rx="4.43959" stroke="#A5A5A5"/>
<g clip-path="url(#clip0_196_29175)">
<path d="M32.2804 7.42525C32.2122 7.34899 29.7539 7.45535 27.6148 9.77711C25.4756 12.0969 25.8047 14.7578 25.8529 14.826C25.901 14.8942 28.9031 15.0006 30.8195 12.3016C32.7359 9.60253 32.3486 7.50351 32.2804 7.42525ZM38.9306 30.97C38.8343 30.7773 34.265 28.4937 34.6904 24.103C35.1159 19.7123 38.0517 18.5063 38.0978 18.3759C38.144 18.2454 36.8998 16.7906 35.5814 16.0541C34.6132 15.5354 33.542 15.2379 32.4449 15.1832C32.2282 15.1772 31.4757 14.9926 29.9285 15.416C28.9091 15.6949 26.6114 16.5979 25.9793 16.634C25.3452 16.6702 23.4589 15.5865 21.4301 15.2996C20.1318 15.0487 18.7552 15.5625 17.7699 15.9578C16.7866 16.3511 14.9163 17.4708 13.6079 20.4468C12.2996 23.4207 12.9839 28.1325 13.4735 29.5974C13.9631 31.0623 14.7277 33.4583 16.028 35.2081C17.1839 37.1827 18.717 38.5533 19.3572 39.0189C19.9973 39.4844 21.8033 39.7935 23.0555 39.1533C24.0629 38.5353 25.881 38.1801 26.5994 38.2062C27.3158 38.2323 28.7285 38.5152 30.1753 39.2878C31.3212 39.6831 32.4048 39.5186 33.4904 39.0771C34.5761 38.6336 36.1473 36.952 37.9814 33.5426C38.6771 31.9573 38.9935 31.0997 38.9306 30.97Z" fill="white"/>
<path d="M32.2804 7.42525C32.2122 7.34899 29.7539 7.45535 27.6148 9.77711C25.4756 12.0969 25.8047 14.7578 25.8529 14.826C25.901 14.8942 28.9031 15.0006 30.8195 12.3016C32.7359 9.60253 32.3486 7.50351 32.2804 7.42525ZM38.9306 30.97C38.8343 30.7773 34.265 28.4937 34.6904 24.103C35.1159 19.7123 38.0517 18.5063 38.0978 18.3759C38.144 18.2454 36.8998 16.7906 35.5814 16.0541C34.6132 15.5354 33.542 15.2379 32.4449 15.1832C32.2282 15.1772 31.4757 14.9926 29.9285 15.416C28.9091 15.6949 26.6114 16.5979 25.9793 16.634C25.3452 16.6702 23.4589 15.5865 21.4301 15.2996C20.1318 15.0487 18.7552 15.5625 17.7699 15.9578C16.7866 16.3511 14.9163 17.4708 13.6079 20.4468C12.2996 23.4207 12.9839 28.1325 13.4735 29.5974C13.9631 31.0623 14.7277 33.4583 16.028 35.2081C17.1839 37.1827 18.717 38.5533 19.3572 39.0189C19.9973 39.4844 21.8033 39.7935 23.0555 39.1533C24.0629 38.5353 25.881 38.1801 26.5994 38.2062C27.3158 38.2323 28.7285 38.5152 30.1753 39.2878C31.3212 39.6831 32.4048 39.5186 33.4904 39.0771C34.5761 38.6336 36.1473 36.952 37.9814 33.5426C38.6771 31.9573 38.9935 31.0997 38.9306 30.97Z" fill="white"/>
</g>
<path d="M58.8124 8.48503H57.581C57.5337 8.22191 57.4455 7.99037 57.3166 7.7904C57.1877 7.59043 57.0298 7.42072 56.843 7.28126C56.6562 7.14181 56.447 7.03656 56.2154 6.96552C55.9865 6.89448 55.7431 6.85896 55.4853 6.85896C55.0196 6.85896 54.6025 6.97605 54.2342 7.21022C53.8684 7.4444 53.579 7.78776 53.3659 8.24033C53.1554 8.69289 53.0501 9.24544 53.0501 9.89797C53.0501 10.5558 53.1554 11.1109 53.3659 11.5635C53.579 12.0161 53.8697 12.3581 54.2381 12.5897C54.6065 12.8212 55.0209 12.937 55.4813 12.937C55.7366 12.937 55.9786 12.9028 56.2075 12.8344C56.4391 12.7633 56.6483 12.6594 56.8351 12.5226C57.0219 12.3857 57.1798 12.2187 57.3087 12.0213C57.4402 11.8214 57.531 11.5924 57.581 11.3346L58.8124 11.3385C58.7466 11.7358 58.619 12.1016 58.4296 12.4357C58.2428 12.7673 58.002 13.0541 57.7073 13.2961C57.4152 13.5356 57.0811 13.7211 56.7048 13.8526C56.3286 13.9842 55.9181 14.05 55.4734 14.05C54.7735 14.05 54.15 13.8842 53.6027 13.5527C53.0554 13.2185 52.6239 12.741 52.3081 12.12C51.995 11.499 51.8385 10.7584 51.8385 9.89797C51.8385 9.03494 51.9963 8.29427 52.3121 7.67594C52.6278 7.05498 53.0593 6.57874 53.6066 6.24721C54.1539 5.91305 54.7762 5.74597 55.4734 5.74597C55.9023 5.74597 56.3023 5.80781 56.6733 5.93147C57.0469 6.0525 57.3824 6.23142 57.6797 6.46823C57.977 6.7024 58.223 6.9892 58.4177 7.32862C58.6124 7.66541 58.744 8.05088 58.8124 8.48503ZM62.7306 14.0618C62.1622 14.0618 61.6662 13.9316 61.2426 13.6711C60.819 13.4106 60.4901 13.0462 60.2559 12.5778C60.0218 12.1095 59.9047 11.5622 59.9047 10.936C59.9047 10.3071 60.0218 9.7572 60.2559 9.28622C60.4901 8.81524 60.819 8.44951 61.2426 8.18902C61.6662 7.92853 62.1622 7.79829 62.7306 7.79829C63.2989 7.79829 63.7949 7.92853 64.2185 8.18902C64.6421 8.44951 64.971 8.81524 65.2052 9.28622C65.4393 9.7572 65.5564 10.3071 65.5564 10.936C65.5564 11.5622 65.4393 12.1095 65.2052 12.5778C64.971 13.0462 64.6421 13.4106 64.2185 13.6711C63.7949 13.9316 63.2989 14.0618 62.7306 14.0618ZM62.7345 13.0712C63.1029 13.0712 63.4081 12.9738 63.6501 12.7791C63.8922 12.5844 64.0711 12.3252 64.1869 12.0016C64.3053 11.678 64.3645 11.3214 64.3645 10.932C64.3645 10.5452 64.3053 10.19 64.1869 9.86639C64.0711 9.54013 63.8922 9.27833 63.6501 9.08099C63.4081 8.88365 63.1029 8.78498 62.7345 8.78498C62.3635 8.78498 62.0557 8.88365 61.811 9.08099C61.5689 9.27833 61.3887 9.54013 61.2703 9.86639C61.1545 10.19 61.0966 10.5452 61.0966 10.932C61.0966 11.3214 61.1545 11.678 61.2703 12.0016C61.3887 12.3252 61.5689 12.5844 61.811 12.7791C62.0557 12.9738 62.3635 13.0712 62.7345 13.0712ZM66.8737 13.9395V7.87722H68.0064V8.86392H68.0814C68.2077 8.52976 68.4142 8.26927 68.701 8.08246C68.9878 7.89301 69.3312 7.79829 69.7311 7.79829C70.1363 7.79829 70.4757 7.89301 70.7494 8.08246C71.0257 8.2719 71.2296 8.53239 71.3611 8.86392H71.4243C71.569 8.54028 71.7992 8.28243 72.115 8.09035C72.4307 7.89564 72.807 7.79829 73.2437 7.79829C73.7937 7.79829 74.2423 7.97063 74.5896 8.31532C74.9395 8.66 75.1145 9.17966 75.1145 9.87429V13.9395H73.9344V9.9848C73.9344 9.57433 73.8226 9.27701 73.599 9.09283C73.3753 8.90865 73.1082 8.81655 72.7978 8.81655C72.4136 8.81655 72.115 8.93496 71.9018 9.17176C71.6887 9.40594 71.5822 9.70721 71.5822 10.0756V13.9395H70.406V9.90981C70.406 9.58091 70.3034 9.31648 70.0982 9.11651C69.8929 8.91654 69.6259 8.81655 69.297 8.81655C69.0733 8.81655 68.8668 8.87576 68.6773 8.99416C68.4905 9.10993 68.3392 9.27175 68.2235 9.47961C68.1103 9.68747 68.0537 9.92823 68.0537 10.2019V13.9395H66.8737ZM76.6962 13.9395V7.87722H77.8763V13.9395H76.6962ZM77.2921 6.94184C77.0869 6.94184 76.9106 6.87343 76.7633 6.73661C76.6186 6.59716 76.5462 6.43139 76.5462 6.23932C76.5462 6.04461 76.6186 5.87885 76.7633 5.74203C76.9106 5.60257 77.0869 5.53285 77.2921 5.53285C77.4974 5.53285 77.6723 5.60257 77.8171 5.74203C77.9644 5.87885 78.0381 6.04461 78.0381 6.23932C78.0381 6.43139 77.9644 6.59716 77.8171 6.73661C77.6723 6.87343 77.4974 6.94184 77.2921 6.94184ZM80.6439 10.34V13.9395H79.4638V7.87722H80.5966V8.86392H80.6716C80.811 8.54291 81.0294 8.28506 81.3267 8.09035C81.6267 7.89564 82.0042 7.79829 82.4594 7.79829C82.8725 7.79829 83.2343 7.88512 83.5448 8.05878C83.8553 8.2298 84.096 8.48503 84.2671 8.82445C84.4381 9.16387 84.5236 9.58354 84.5236 10.0835V13.9395H83.3435V10.2255C83.3435 9.78614 83.2291 9.44277 83.0001 9.19544C82.7712 8.94548 82.4568 8.8205 82.0569 8.8205C81.7832 8.8205 81.5398 8.8797 81.3267 8.99811C81.1162 9.11651 80.9491 9.29017 80.8255 9.51908C80.7044 9.74536 80.6439 10.019 80.6439 10.34ZM88.648 16.3391C88.1665 16.3391 87.752 16.2759 87.4047 16.1496C87.06 16.0233 86.7785 15.8563 86.5601 15.6484C86.3417 15.4405 86.1786 15.2129 86.0707 14.9656L87.085 14.5473C87.1561 14.663 87.2508 14.7854 87.3692 14.9143C87.4902 15.0459 87.6534 15.1577 87.8586 15.2498C88.0665 15.3419 88.3335 15.3879 88.6598 15.3879C89.1071 15.3879 89.4768 15.2787 89.7688 15.0603C90.0609 14.8446 90.2069 14.4999 90.2069 14.0263V12.8344H90.1319C90.0609 12.9633 89.9583 13.1067 89.8241 13.2646C89.6925 13.4224 89.511 13.5592 89.2794 13.675C89.0479 13.7908 88.7466 13.8487 88.3756 13.8487C87.8968 13.8487 87.4652 13.7369 87.0811 13.5132C86.6996 13.2869 86.397 12.9541 86.1733 12.5147C85.9523 12.0726 85.8418 11.5293 85.8418 10.8847C85.8418 10.24 85.951 9.68747 86.1694 9.22702C86.3904 8.76656 86.693 8.41398 87.0771 8.16929C87.4613 7.92195 87.8968 7.79829 88.3835 7.79829C88.7598 7.79829 89.0637 7.86144 89.2952 7.98773C89.5268 8.1114 89.707 8.25611 89.8359 8.42188C89.9675 8.58764 90.0688 8.73367 90.1398 8.85997H90.2267V7.87722H91.3831V14.0736C91.3831 14.5946 91.262 15.0222 91.02 15.3563C90.7779 15.6905 90.4503 15.9378 90.0372 16.0983C89.6268 16.2588 89.1637 16.3391 88.648 16.3391ZM88.6361 12.8699C88.9755 12.8699 89.2623 12.7909 89.4965 12.6331C89.7333 12.4726 89.9122 12.2437 90.0333 11.9463C90.1569 11.6464 90.2188 11.2872 90.2188 10.8689C90.2188 10.461 90.1583 10.1019 90.0372 9.7914C89.9162 9.48093 89.7386 9.23886 89.5044 9.0652C89.2702 8.88891 88.9808 8.80077 88.6361 8.80077C88.2809 8.80077 87.9849 8.89286 87.7481 9.07704C87.5113 9.25859 87.3324 9.50592 87.2113 9.81903C87.0929 10.1321 87.0337 10.4821 87.0337 10.8689C87.0337 11.2662 87.0943 11.6148 87.2153 11.9148C87.3363 12.2147 87.5152 12.4489 87.752 12.6173C87.9915 12.7857 88.2862 12.8699 88.6361 12.8699ZM100.45 9.35726L99.3802 9.54671C99.3355 9.40988 99.2644 9.27964 99.1671 9.15598C99.0724 9.03231 98.9434 8.93101 98.7803 8.85208C98.6172 8.77314 98.4132 8.73367 98.1685 8.73367C97.8344 8.73367 97.5555 8.80866 97.3318 8.95864C97.1082 9.10598 96.9964 9.29674 96.9964 9.53092C96.9964 9.73352 97.0713 9.89665 97.2213 10.0203C97.3713 10.144 97.6134 10.2453 97.9475 10.3242L98.9105 10.5452C99.4683 10.6742 99.8841 10.8728 100.158 11.1412C100.431 11.4096 100.568 11.7582 100.568 12.1871C100.568 12.5502 100.463 12.8738 100.252 13.158C100.045 13.4395 99.7538 13.6605 99.3802 13.8211C99.0092 13.9816 98.579 14.0618 98.0896 14.0618C97.4108 14.0618 96.8569 13.9171 96.428 13.6277C95.9991 13.3356 95.736 12.9212 95.6387 12.3844L96.7793 12.2108C96.8503 12.5081 96.9964 12.7331 97.2174 12.8857C97.4384 13.0356 97.7265 13.1106 98.0817 13.1106C98.4685 13.1106 98.7777 13.0304 99.0092 12.8699C99.2407 12.7067 99.3565 12.5081 99.3565 12.2739C99.3565 12.0845 99.2855 11.9253 99.1434 11.7964C99.0039 11.6674 98.7895 11.5701 98.5001 11.5043L97.4739 11.2793C96.9082 11.1504 96.4899 10.9452 96.2188 10.6636C95.9505 10.3821 95.8163 10.0256 95.8163 9.59407C95.8163 9.23623 95.9163 8.92312 96.1162 8.65474C96.3162 8.38636 96.5925 8.17718 96.945 8.0272C97.2976 7.87459 97.7015 7.79829 98.1567 7.79829C98.8119 7.79829 99.3276 7.94037 99.7038 8.22454C100.08 8.50608 100.329 8.88365 100.45 9.35726ZM104.419 14.0618C103.851 14.0618 103.355 13.9316 102.931 13.6711C102.508 13.4106 102.179 13.0462 101.945 12.5778C101.71 12.1095 101.593 11.5622 101.593 10.936C101.593 10.3071 101.71 9.7572 101.945 9.28622C102.179 8.81524 102.508 8.44951 102.931 8.18902C103.355 7.92853 103.851 7.79829 104.419 7.79829C104.988 7.79829 105.484 7.92853 105.907 8.18902C106.331 8.44951 106.66 8.81524 106.894 9.28622C107.128 9.7572 107.245 10.3071 107.245 10.936C107.245 11.5622 107.128 12.1095 106.894 12.5778C106.66 13.0462 106.331 13.4106 105.907 13.6711C105.484 13.9316 104.988 14.0618 104.419 14.0618ZM104.423 13.0712C104.792 13.0712 105.097 12.9738 105.339 12.7791C105.581 12.5844 105.76 12.3252 105.876 12.0016C105.994 11.678 106.053 11.3214 106.053 10.932C106.053 10.5452 105.994 10.19 105.876 9.86639C105.76 9.54013 105.581 9.27833 105.339 9.08099C105.097 8.88365 104.792 8.78498 104.423 8.78498C104.052 8.78498 103.744 8.88365 103.5 9.08099C103.258 9.27833 103.077 9.54013 102.959 9.86639C102.843 10.19 102.785 10.5452 102.785 10.932C102.785 11.3214 102.843 11.678 102.959 12.0016C103.077 12.3252 103.258 12.5844 103.5 12.7791C103.744 12.9738 104.052 13.0712 104.423 13.0712ZM111.116 14.0618C110.548 14.0618 110.052 13.9316 109.628 13.6711C109.204 13.4106 108.875 13.0462 108.641 12.5778C108.407 12.1095 108.29 11.5622 108.29 10.936C108.29 10.3071 108.407 9.7572 108.641 9.28622C108.875 8.81524 109.204 8.44951 109.628 8.18902C110.052 7.92853 110.548 7.79829 111.116 7.79829C111.684 7.79829 112.18 7.92853 112.604 8.18902C113.027 8.44951 113.356 8.81524 113.591 9.28622C113.825 9.7572 113.942 10.3071 113.942 10.936C113.942 11.5622 113.825 12.1095 113.591 12.5778C113.356 13.0462 113.027 13.4106 112.604 13.6711C112.18 13.9316 111.684 14.0618 111.116 14.0618ZM111.12 13.0712C111.488 13.0712 111.793 12.9738 112.035 12.7791C112.278 12.5844 112.456 12.3252 112.572 12.0016C112.691 11.678 112.75 11.3214 112.75 10.932C112.75 10.5452 112.691 10.19 112.572 9.86639C112.456 9.54013 112.278 9.27833 112.035 9.08099C111.793 8.88365 111.488 8.78498 111.12 8.78498C110.749 8.78498 110.441 8.88365 110.196 9.08099C109.954 9.27833 109.774 9.54013 109.656 9.86639C109.54 10.19 109.482 10.5452 109.482 10.932C109.482 11.3214 109.54 11.678 109.656 12.0016C109.774 12.3252 109.954 12.5844 110.196 12.7791C110.441 12.9738 110.749 13.0712 111.12 13.0712ZM116.439 10.34V13.9395H115.259V7.87722H116.392V8.86392H116.467C116.606 8.54291 116.825 8.28506 117.122 8.09035C117.422 7.89564 117.799 7.79829 118.255 7.79829C118.668 7.79829 119.029 7.88512 119.34 8.05878C119.65 8.2298 119.891 8.48503 120.062 8.82445C120.233 9.16387 120.319 9.58354 120.319 10.0835V13.9395H119.139V10.2255C119.139 9.78614 119.024 9.44277 118.795 9.19544C118.566 8.94548 118.252 8.8205 117.852 8.8205C117.578 8.8205 117.335 8.8797 117.122 8.99811C116.911 9.11651 116.744 9.29017 116.621 9.51908C116.5 9.74536 116.439 10.019 116.439 10.34Z" fill="white"/>
<path d="M54.0035 36.9062H51.7021L56.8732 22.5365H59.3781L64.5492 36.9062H62.2478L58.1853 25.1466H58.073L54.0035 36.9062ZM54.3894 31.279H61.8549V33.1033H54.3894V31.279ZM66.456 40.9477V26.129H68.5048V27.8761H68.6802C68.8018 27.6515 68.9772 27.3919 69.2064 27.0972C69.4356 26.8025 69.7537 26.5453 70.1607 26.3254C70.5676 26.1009 71.1055 25.9886 71.7745 25.9886C72.6445 25.9886 73.421 26.2085 74.1039 26.6482C74.7869 27.0879 75.3224 27.7217 75.7107 28.5496C76.1036 29.3776 76.3001 30.3739 76.3001 31.5387C76.3001 32.7034 76.106 33.7021 75.7177 34.5347C75.3295 35.3626 74.7962 36.0011 74.118 36.4502C73.4397 36.8946 72.6655 37.1167 71.7955 37.1167C71.1406 37.1167 70.605 37.0068 70.1887 36.787C69.7771 36.5671 69.4543 36.3099 69.2205 36.0152C68.9866 35.7205 68.8065 35.4585 68.6802 35.2293H68.5539V40.9477H66.456ZM68.5118 31.5176C68.5118 32.2754 68.6217 32.9396 68.8416 33.5103C69.0614 34.081 69.3795 34.5277 69.7958 34.8504C70.2121 35.1685 70.722 35.3275 71.3254 35.3275C71.9522 35.3275 72.4761 35.1615 72.8971 34.8294C73.3181 34.4926 73.6362 34.0365 73.8513 33.4612C74.0712 32.8858 74.1811 32.238 74.1811 31.5176C74.1811 30.8066 74.0735 30.1681 73.8583 29.6021C73.6478 29.0361 73.3298 28.5894 72.9041 28.262C72.4831 27.9345 71.9569 27.7708 71.3254 27.7708C70.7173 27.7708 70.2028 27.9275 69.7818 28.2409C69.3655 28.5543 69.0497 28.9917 68.8346 29.553C68.6194 30.1143 68.5118 30.7692 68.5118 31.5176ZM78.6506 40.9477V26.129H80.6994V27.8761H80.8748C80.9964 27.6515 81.1718 27.3919 81.401 27.0972C81.6303 26.8025 81.9483 26.5453 82.3553 26.3254C82.7622 26.1009 83.3002 25.9886 83.9691 25.9886C84.8391 25.9886 85.6156 26.2085 86.2985 26.6482C86.9815 27.0879 87.5171 27.7217 87.9053 28.5496C88.2982 29.3776 88.4947 30.3739 88.4947 31.5387C88.4947 32.7034 88.3006 33.7021 87.9123 34.5347C87.5241 35.3626 86.9908 36.0011 86.3126 36.4502C85.6343 36.8946 84.8602 37.1167 83.9901 37.1167C83.3353 37.1167 82.7997 37.0068 82.3834 36.787C81.9717 36.5671 81.649 36.3099 81.4151 36.0152C81.1812 35.7205 81.0011 35.4585 80.8748 35.2293H80.7485V40.9477H78.6506ZM80.7064 31.5176C80.7064 32.2754 80.8163 32.9396 81.0362 33.5103C81.256 34.081 81.5741 34.5277 81.9904 34.8504C82.4067 35.1685 82.9166 35.3275 83.52 35.3275C84.1468 35.3275 84.6707 35.1615 85.0917 34.8294C85.5127 34.4926 85.8308 34.0365 86.0459 33.4612C86.2658 32.8858 86.3757 32.238 86.3757 31.5176C86.3757 30.8066 86.2681 30.1681 86.053 29.6021C85.8425 29.0361 85.5244 28.5894 85.0987 28.262C84.6777 27.9345 84.1515 27.7708 83.52 27.7708C82.9119 27.7708 82.3974 27.9275 81.9764 28.2409C81.5601 28.5543 81.2443 28.9917 81.0292 29.553C80.814 30.1143 80.7064 30.7692 80.7064 31.5176ZM104.08 26.3114C104.005 25.6472 103.696 25.1326 103.154 24.7678C102.611 24.3982 101.928 24.2135 101.105 24.2135C100.516 24.2135 100.006 24.307 99.5754 24.4941C99.1451 24.6765 98.8107 24.9291 98.5721 25.2519C98.3382 25.57 98.2213 25.9325 98.2213 26.3394C98.2213 26.6809 98.3008 26.9756 98.4598 27.2235C98.6235 27.4714 98.8364 27.6796 99.0983 27.848C99.365 28.0117 99.6503 28.1497 99.9543 28.262C100.258 28.3695 100.551 28.4584 100.831 28.5286L102.235 28.8934C102.693 29.0057 103.163 29.1577 103.645 29.3495C104.127 29.5413 104.574 29.7939 104.985 30.1073C105.397 30.4207 105.729 30.8089 105.981 31.272C106.239 31.7351 106.367 32.2894 106.367 32.9349C106.367 33.7488 106.157 34.4715 105.736 35.103C105.32 35.7345 104.714 36.2327 103.919 36.5975C103.128 36.9624 102.172 37.1448 101.049 37.1448C99.973 37.1448 99.0422 36.9741 98.2564 36.6326C97.4705 36.2911 96.8554 35.807 96.411 35.1802C95.9666 34.5487 95.7211 33.8003 95.6743 32.9349H97.8494C97.8915 33.4541 98.0599 33.8868 98.3546 34.233C98.654 34.5744 99.0352 34.8294 99.4983 34.9978C99.966 35.1615 100.478 35.2433 101.035 35.2433C101.648 35.2433 102.193 35.1475 102.67 34.9557C103.152 34.7592 103.53 34.4879 103.806 34.1418C104.082 33.7909 104.22 33.3816 104.22 32.9139C104.22 32.4882 104.099 32.1397 103.855 31.8684C103.617 31.5971 103.292 31.3726 102.88 31.1948C102.473 31.0171 102.013 30.8604 101.498 30.7247L99.8 30.2617C98.6493 29.9483 97.7371 29.4875 97.0636 28.8794C96.3947 28.2713 96.0602 27.4668 96.0602 26.4657C96.0602 25.6378 96.2847 24.9151 96.7338 24.2977C97.1828 23.6802 97.7909 23.2007 98.5581 22.8593C99.3252 22.5131 100.191 22.3401 101.154 22.3401C102.127 22.3401 102.985 22.5108 103.729 22.8523C104.478 23.1937 105.067 23.6638 105.497 24.2626C105.928 24.8566 106.152 25.5396 106.171 26.3114H104.08ZM113.821 26.129V27.8129H107.934V26.129H113.821ZM109.513 23.5469H111.61V33.7418C111.61 34.1488 111.671 34.4552 111.793 34.661C111.914 34.8621 112.071 35.0001 112.263 35.075C112.459 35.1451 112.672 35.1802 112.901 35.1802C113.07 35.1802 113.217 35.1685 113.344 35.1451C113.47 35.1217 113.568 35.103 113.638 35.089L114.017 36.8221C113.895 36.8688 113.722 36.9156 113.498 36.9624C113.273 37.0138 112.993 37.0419 112.656 37.0466C112.104 37.0559 111.589 36.9577 111.112 36.7519C110.635 36.5461 110.249 36.228 109.955 35.7976C109.66 35.3673 109.513 34.827 109.513 34.1768V23.5469ZM120.565 37.1238C119.555 37.1238 118.673 36.8922 117.92 36.4291C117.167 35.966 116.582 35.3182 116.166 34.4856C115.75 33.6529 115.541 32.68 115.541 31.5667C115.541 30.4488 115.75 29.4711 116.166 28.6338C116.582 27.7965 117.167 27.1463 117.92 26.6833C118.673 26.2202 119.555 25.9886 120.565 25.9886C121.576 25.9886 122.457 26.2202 123.21 26.6833C123.964 27.1463 124.548 27.7965 124.965 28.6338C125.381 29.4711 125.589 30.4488 125.589 31.5667C125.589 32.68 125.381 33.6529 124.965 34.4856C124.548 35.3182 123.964 35.966 123.21 36.4291C122.457 36.8922 121.576 37.1238 120.565 37.1238ZM120.572 35.3626C121.227 35.3626 121.77 35.1896 122.2 34.8434C122.63 34.4973 122.948 34.0365 123.154 33.4612C123.365 32.8858 123.47 32.252 123.47 31.5597C123.47 30.8721 123.365 30.2406 123.154 29.6653C122.948 29.0852 122.63 28.6198 122.2 28.269C121.77 27.9182 121.227 27.7427 120.572 27.7427C119.913 27.7427 119.365 27.9182 118.93 28.269C118.5 28.6198 118.18 29.0852 117.969 29.6653C117.763 30.2406 117.66 30.8721 117.66 31.5597C117.66 32.252 117.763 32.8858 117.969 33.4612C118.18 34.0365 118.5 34.4973 118.93 34.8434C119.365 35.1896 119.913 35.3626 120.572 35.3626ZM127.931 36.9062V26.129H129.959V27.841H130.071C130.267 27.2609 130.613 26.8049 131.109 26.4728C131.61 26.136 132.176 25.9676 132.807 25.9676C132.938 25.9676 133.093 25.9723 133.27 25.9816C133.453 25.991 133.595 26.0027 133.698 26.0167V28.0234C133.614 28 133.464 27.9743 133.249 27.9462C133.034 27.9135 132.819 27.8971 132.604 27.8971C132.108 27.8971 131.666 28.0024 131.278 28.2128C130.894 28.4187 130.59 28.7063 130.365 29.0759C130.141 29.4407 130.029 29.857 130.029 30.3248V36.9062H127.931ZM139.773 37.1238C138.711 37.1238 137.796 36.8969 137.029 36.4432C136.267 35.9848 135.678 35.3416 135.261 34.5136C134.85 33.681 134.644 32.7057 134.644 31.5878C134.644 30.4838 134.85 29.5109 135.261 28.6689C135.678 27.8269 136.258 27.1697 137.001 26.6973C137.75 26.2248 138.624 25.9886 139.625 25.9886C140.234 25.9886 140.823 26.0892 141.394 26.2903C141.964 26.4915 142.476 26.8072 142.93 27.2376C143.384 27.6679 143.742 28.2269 144.004 28.9145C144.266 29.5974 144.397 30.4277 144.397 31.4053V32.1491H135.83V30.5774H142.341C142.341 30.0254 142.229 29.5366 142.004 29.111C141.78 28.6806 141.464 28.3415 141.057 28.0936C140.655 27.8457 140.182 27.7217 139.639 27.7217C139.05 27.7217 138.536 27.8667 138.096 28.1567C137.661 28.4421 137.324 28.8163 137.085 29.2793C136.852 29.7378 136.735 30.2359 136.735 30.7739V32.0017C136.735 32.7221 136.861 33.3349 137.114 33.8401C137.371 34.3452 137.729 34.7311 138.187 34.9978C138.645 35.2597 139.181 35.3907 139.794 35.3907C140.191 35.3907 140.554 35.3346 140.881 35.2223C141.209 35.1054 141.492 34.9323 141.73 34.7031C141.969 34.4739 142.151 34.1909 142.278 33.8541L144.263 34.2119C144.104 34.7966 143.819 35.3088 143.407 35.7485C143 36.1836 142.488 36.5227 141.871 36.7659C141.258 37.0045 140.559 37.1238 139.773 37.1238Z" fill="white"/>
<defs>
<clipPath id="clip0_196_29175">
<rect width="32.1074" height="32.1074" fill="white" transform="translate(9.84375 7.40918)"/>
</clipPath>
</defs>
</svg>
