<svg width="17" height="17" viewBox="0 0 17 17" fill="none" xmlns="http://www.w3.org/2000/svg">
<g clip-path="url(#clip0_130_19014)">
<path d="M12.743 0H4.0947C1.98751 0 0.279297 1.70822 0.279297 3.81541V12.4637C0.279297 14.5709 1.98751 16.2791 4.0947 16.2791H12.743C14.8502 16.2791 16.5584 14.5709 16.5584 12.4637V3.81541C16.5584 1.70822 14.8502 0 12.743 0Z" fill="#344054"/>
<path d="M12.743 0H4.0947C1.98751 0 0.279297 1.70822 0.279297 3.81541V12.4637C0.279297 14.5709 1.98751 16.2791 4.0947 16.2791H12.743C14.8502 16.2791 16.5584 14.5709 16.5584 12.4637V3.81541C16.5584 1.70822 14.8502 0 12.743 0Z" fill="#344054"/>
<path d="M8.42013 1.78076C6.69315 1.78076 6.47637 1.78833 5.79812 1.81917C5.12114 1.8502 4.65903 1.95735 4.25472 2.11461C3.83643 2.27702 3.48166 2.49431 3.12822 2.84787C2.77447 3.20136 2.55719 3.55613 2.39427 3.97424C2.23656 4.37867 2.12929 4.84097 2.09883 5.51763C2.0685 6.19595 2.06055 6.41279 2.06055 8.13984C2.06055 9.86688 2.06818 10.083 2.09896 10.7612C2.13011 11.4382 2.23726 11.9003 2.39439 12.3046C2.55693 12.7229 2.77422 13.0777 3.12778 13.4311C3.48115 13.7849 3.83592 14.0027 4.2539 14.1651C4.65852 14.3223 5.12069 14.4295 5.79755 14.4605C6.47586 14.4913 6.69245 14.4989 8.41937 14.4989C10.1465 14.4989 10.3626 14.4913 11.0409 14.4605C11.7179 14.4295 12.1805 14.3223 12.5851 14.1651C13.0032 14.0027 13.3575 13.7849 13.7108 13.4311C14.0645 13.0777 14.2817 12.7229 14.4447 12.3048C14.601 11.9003 14.7084 11.4381 14.7402 10.7613C14.7706 10.0831 14.7786 9.86688 14.7786 8.13984C14.7786 6.41279 14.7706 6.19608 14.7402 5.51776C14.7084 4.84078 14.601 4.37874 14.4447 3.97443C14.2817 3.55613 14.0645 3.20136 13.7108 2.84787C13.3571 2.49418 13.0033 2.27689 12.5847 2.11467C12.1793 1.95735 11.717 1.85014 11.04 1.81917C10.3617 1.78833 10.1457 1.78076 8.41816 1.78076H8.42013ZM7.84966 2.92672C8.019 2.92646 8.20793 2.92672 8.42013 2.92672C10.1181 2.92672 10.3193 2.93282 10.9897 2.96328C11.6097 2.99164 11.9463 3.09523 12.1704 3.18229C12.4672 3.29751 12.6788 3.43531 12.9012 3.65794C13.1238 3.88051 13.2615 4.09245 13.377 4.38923C13.4641 4.61307 13.5678 4.94958 13.596 5.56959C13.6265 6.23995 13.6331 6.44128 13.6331 8.13837C13.6331 9.83547 13.6265 10.0369 13.596 10.7072C13.5677 11.3272 13.4641 11.6637 13.377 11.8876C13.2618 12.1844 13.1238 12.3957 12.9012 12.6181C12.6786 12.8407 12.4673 12.9784 12.1704 13.0937C11.9465 13.1811 11.6097 13.2845 10.9897 13.3128C10.3194 13.3433 10.1181 13.3499 8.42013 13.3499C6.72215 13.3499 6.52088 13.3433 5.85058 13.3128C5.23058 13.2842 4.89406 13.1806 4.66971 13.0936C4.373 12.9783 4.16099 12.8405 3.93843 12.618C3.71586 12.3954 3.57812 12.184 3.46258 11.8871C3.37553 11.6632 3.27181 11.3267 3.24358 10.7067C3.21312 10.0363 3.20701 9.83496 3.20701 8.13679C3.20701 6.43867 3.21312 6.23837 3.24358 5.568C3.27194 4.94799 3.37553 4.61148 3.46258 4.38732C3.57787 4.09055 3.71586 3.8786 3.93849 3.65603C4.16106 3.43347 4.373 3.29567 4.66978 3.18019C4.89393 3.09275 5.23058 2.98942 5.85058 2.96093C6.4372 2.93441 6.66454 2.92646 7.84966 2.92513V2.92672ZM11.8146 3.98257C11.3933 3.98257 11.0515 4.32405 11.0515 4.7454C11.0515 5.16668 11.3933 5.50848 11.8146 5.50848C12.2359 5.50848 12.5777 5.16668 12.5777 4.7454C12.5777 4.32411 12.2359 3.98232 11.8146 3.98232V3.98257ZM8.42013 4.87417C6.61672 4.87417 5.15452 6.33636 5.15452 8.13984C5.15452 9.94332 6.61672 11.4048 8.42013 11.4048C10.2236 11.4048 11.6853 9.94332 11.6853 8.13984C11.6853 6.33642 10.2235 4.87417 8.42 4.87417H8.42013ZM8.42013 6.02012C9.59076 6.02012 10.5398 6.96908 10.5398 8.13984C10.5398 9.31047 9.59076 10.2596 8.42013 10.2596C7.24944 10.2596 6.30048 9.31047 6.30048 8.13984C6.30048 6.96908 7.24944 6.02012 8.42013 6.02012Z" fill="white"/>
</g>
<defs>
<clipPath id="clip0_130_19014">
<rect width="16.2791" height="16.2791" fill="white" transform="translate(0.279297)"/>
</clipPath>
</defs>
</svg>
