<svg width="15" height="16" viewBox="0 0 15 16" fill="none" xmlns="http://www.w3.org/2000/svg">
<path d="M10.7377 5.21193C11.9258 5.96099 13.3805 6.40171 14.952 6.40171V4.30154C14.0748 4.13667 13.2983 3.73228 12.7145 3.16975C11.7152 2.61952 10.9951 1.71182 10.784 0.649414H8.58105V11.3062C8.57603 12.5486 7.43331 13.5545 6.02409 13.5545C5.19373 13.5545 4.45596 13.2053 3.98876 12.6642C3.15446 12.2927 2.58228 11.53 2.58228 10.6491C2.58228 9.40329 3.7269 8.3932 5.13911 8.3932C5.40968 8.3932 5.67047 8.43036 5.9151 8.49885V6.37572C2.88236 6.43101 0.443359 8.61735 0.443359 11.3063C0.443359 12.6485 1.05071 13.8654 2.03648 14.7545C2.92579 15.2813 3.99633 15.5887 5.1482 15.5887C8.23518 15.5887 10.7378 13.3806 10.7378 10.6568L10.7377 5.21193Z" fill="#344054"/>
</svg>
