<svg width="18" height="13" viewBox="0 0 18 13" fill="none" xmlns="http://www.w3.org/2000/svg">
<g clip-path="url(#clip0_130_19022)">
<path d="M16.7574 1.93898C16.6641 1.57091 16.4819 1.23535 16.2291 0.965714C15.9764 0.696081 15.6618 0.501783 15.3167 0.402168C14.0535 0.034668 8.96917 0.034668 8.96917 0.034668C8.96917 0.034668 3.88463 0.045792 2.62135 0.413292C2.27628 0.512913 1.96169 0.707221 1.70892 0.976867C1.45615 1.24651 1.27402 1.58209 1.18065 1.95017C0.798541 4.34442 0.650312 7.99269 1.19115 10.2912C1.28452 10.6592 1.46666 10.9948 1.71943 11.2644C1.9722 11.5341 2.28678 11.7284 2.63184 11.828C3.89512 12.1955 8.97954 12.1955 8.97954 12.1955C8.97954 12.1955 14.0639 12.1955 15.3271 11.828C15.6722 11.7284 15.9868 11.5341 16.2396 11.2644C16.4923 10.9948 16.6745 10.6592 16.7679 10.2912C17.1709 7.89352 17.2951 4.24749 16.7574 1.93898Z" fill="#344054"/>
<path d="M7.35156 8.72102L11.5694 6.11515L7.35156 3.50928V8.72102Z" fill="white"/>
</g>
<defs>
<clipPath id="clip0_130_19022">
<rect width="16.2791" height="12.2093" fill="white" transform="translate(0.837891 0.034668)"/>
</clipPath>
</defs>
</svg>
